<svg width="645" height="565" viewBox="0 0 645 565" fill="none" xmlns="http://www.w3.org/2000/svg">
<rect x="142" y="3" width="78" height="560" rx="10" fill="black"/>
<rect x="417" y="4" width="78" height="560" rx="10" fill="black"/>
<path d="M638.409 2.33242C638.041 1.00184 636.663 0.222064 635.332 0.590742L613.649 6.5987C612.319 6.96738 611.539 8.3449 611.908 9.67548C612.276 11.0061 613.654 11.7858 614.985 11.4172L634.258 6.07675L639.599 25.3506C639.967 26.6811 641.345 27.4609 642.676 27.0922C644.006 26.7236 644.786 25.346 644.417 24.0155L638.409 2.33242ZM319 563L321.176 564.232L638.176 4.23152L636 2.99997L633.824 1.76842L316.824 561.768L319 563Z" fill="black"/>
<line x1="2.17228" y1="2.76258" x2="321.172" y2="562.763" stroke="black" stroke-width="5"/>
</svg>
