<svg width="640" height="562" viewBox="0 0 640 562" fill="none" xmlns="http://www.w3.org/2000/svg">
<rect x="142" y="1" width="78" height="560" rx="10" fill="black"/>
<rect x="417" y="2" width="78" height="560" rx="10" fill="black"/>
<path d="M636.964 0.732949C636.816 0.200718 636.265 -0.111192 635.733 0.0362789L627.06 2.43946C626.528 2.58693 626.216 3.13794 626.363 3.67017C626.511 4.20241 627.062 4.51432 627.594 4.36684L635.303 2.23068L637.44 9.94021C637.587 10.4724 638.138 10.7844 638.67 10.6369C639.202 10.4894 639.514 9.9384 639.367 9.40617L636.964 0.732949ZM319 561L319.87 561.493L636.87 1.49259L636 0.99997L635.13 0.507349L318.13 560.507L319 561Z" fill="black"/>
<line x1="0.868911" y1="1.50503" x2="319.869" y2="561.505" stroke="black" stroke-width="2"/>
</svg>
